Coordinates
version=1
nRows=5
nColumns=40
inDegrees=yes

Units are S.I. units (second, meters, Newtons, ...)
If the header above contains a line with 'inDegrees', this indicates whether rotational values are in degrees (yes) or radians (no).

endheader
time	pelvis_tilt	pelvis_list	pelvis_rotation	pelvis_tx	pelvis_ty	pelvis_tz	hip_flexion_r	hip_adduction_r	hip_rotation_r	knee_angle_r	knee_angle_r_beta	ankle_angle_r	subtalar_angle_r	mtp_angle_r	hip_flexion_l	hip_adduction_l	hip_rotation_l	knee_angle_l	knee_angle_l_beta	ankle_angle_l	subtalar_angle_l	mtp_angle_l	lumbar_extension	lumbar_bending	lumbar_rotation	arm_flex_r	arm_add_r	arm_rot_r	elbow_flex_r	pro_sup_r	wrist_flex_r	wrist_dev_r	arm_flex_l	arm_add_l	arm_rot_l	elbow_flex_l	pro_sup_l	wrist_flex_l	wrist_dev_l
      0.07000000	     -0.56028913	      6.46490321	      6.48944609	     -0.50898740	      0.89968726	      0.18722113	     27.93313633	    -13.04260747	    -18.42491120	     10.25800273	      0.17903592	     -0.78710579	      4.55769535	      0.00000000	    -19.70750934	      1.99137219	    -15.20956180	     13.62909533	      0.23787259	      4.91570565	     16.34920169	      0.00000000	     -2.97274415	     -6.69325454	     -5.54289971	     41.56692791	    -15.94696710	     41.56692791	     76.20404004	     44.96526888	      0.00000000	      0.00000000	     41.56692791	    -15.94696710	     41.56692791	     76.20404004	     44.96526888	      0.00000000	      0.00000000
      0.07500000	     -0.19781765	      5.81770150	      6.68502080	     -0.50083621	      0.89997734	      0.18734072	     27.15141471	    -12.31447652	    -18.35076478	     10.28091135	      0.17943575	     -1.76622542	      3.57480715	      0.00000000	    -20.21022298	      1.08554446	    -14.83251239	     14.13059420	      0.24662539	      4.24333932	     15.45111450	      0.00000000	     -3.26095668	     -5.71446600	     -5.97830140	     41.57830747	    -15.94178738	     41.57830747	     76.19116903	     44.96628933	      0.00000000	      0.00000000	     41.57830747	    -15.94178738	     41.57830747	     76.19116903	     44.96628933	      0.00000000	      0.00000000
      0.08000000	      0.03623134	      5.54526222	      6.64188771	     -0.49266391	      0.89994366	      0.18808452	     26.89512672	    -11.99941248	    -18.21663291	     11.01398965	      0.19223038	     -2.28769349	      3.12585381	      0.00000000	    -20.53889121	      0.59060692	    -14.86810936	     14.77073400	      0.25779794	      3.25674244	     14.88328328	      0.00000000	     -3.41426460	     -5.23569268	     -6.04806835	     41.58026638	    -15.94089683	     41.58026638	     76.18896266	     44.96646244	      0.00000000	      0.00000000	     41.58026638	    -15.94089683	     41.58026638	     76.18896266	     44.96646244	      0.00000000	      0.00000000
      0.08500000	      0.31102604	      5.14170180	      6.63731750	     -0.48449481	      0.90007097	      0.18871741	     26.54693190	    -11.56189838	    -18.20446697	     11.69209614	      0.20406557	     -2.91089993	      2.54368100	      0.00000000	    -20.83258870	     -0.04888977	    -14.84991331	     15.53549092	      0.27114547	      2.31407079	     14.10330484	      0.00000000	     -3.59664236	     -4.58184527	     -6.17228596	     41.58309885	    -15.93960974	     41.58309885	     76.18577736	     44.96671132	      0.00000000	      0.00000000	     41.58309885	    -15.93960974	     41.58309885	     76.18577736	     44.96671132	      0.00000000	      0.00000000
      0.09000000	      0.59015213	      4.73637344	      6.61509180	     -0.47634257	      0.90034794	      0.18941407	     26.17688614	    -11.11399147	    -18.17363661	     12.33738825	      0.21532805	     -3.56537350	      2.05992711	      0.00000000	    -21.08882301	     -0.68911768	    -14.86637874	     16.33873431	      0.28516471	      1.24535686	     13.31119199	      0.00000000	     -3.78169327	     -3.93175920	     -6.30467788	     41.58561439	    -15.93846726	     41.58561439	     76.18295355	     44.96693095	      0.00000000	      0.00000000	     41.58561439	    -15.93846726	     41.58561439	     76.18295355	     44.96693095	      0.00000000	      0.00000000
